# xmcd
#
# Track frame offsets:
#	150
#	22912
#	42746
#	58384
#	74125
#	93100
#	110231
#	123536
#	135885
#	157729
#	176680
#	192537
#	210402
#	225700
#	241610
#	254410
#	268175
#
# Disc length: 3840 seconds
#
# Revision: 4
# Processed by: cddbd v1.5.1PL0 Copyright (c) Steve Scherf et al.
# Submitted via: audiograbber 1.83.01
#
DISCID=f70efe11
DTITLE=2001-12 Country Radio - 2001-12 Country Radio
DYEAR=2001
DGENRE=Country
TTITLE0=Alan Jackson - Where Were You (When The World Stopped Turning)
TTITLE1=Mark Wills With Jamie O'neal - I'm Not Gonna Do Anything Without You
TTITLE2=Tim Mcgraw - The Cowboy In Me
TTITLE3=Charlie Daniels Band - This Ain't No Rag, It's A Flag
TTITLE4=Jack Kapanka - What They Gave To Me
TTITLE5=Kevin Denney - That's Just Jesse
TTITLE6=Blackhawk - Days Of America
TTITLE7=Wayne Warner - I Wanna Do That... Lovething
TTITLE8=Hank Williams Jr. - America Will Survive
TTITLE9=Tim Rushlow - Love, Will
TTITLE10=Patty Loveless Duet With Travis Tritt - Out Of Control Raging Fire
TTITLE11=Kellie Coffey - When You Lie Next To Me
TTITLE12=Craig Morgan - God, Family, And Country
TTITLE13=Br 549 - A Little Good News
TTITLE14=Wylie and The Wild West - Saddle Bum
TTITLE15=Leann Rimes - God Bless America
TTITLE16=David Ball - Riding With Private Malone (Special Acoustic Version)
EXTD=
EXTT0=
EXTT1=
EXTT2=
EXTT3=
EXTT4=
EXTT5=
EXTT6=
EXTT7=
EXTT8=
EXTT9=
EXTT10=
EXTT11=
EXTT12=
EXTT13=
EXTT14=
EXTT15=
EXTT16=
PLAYORDER=
